<?xml version="1.0" encoding="iso-8859-1"?>
<!-- Uploaded to: SVG Repo, www.svgrepo.com, Generator: SVG Repo Mixer Tools -->
<svg fill="#000000" height="800px" width="800px" version="1.1" id="Layer_1" xmlns="http://www.w3.org/2000/svg" xmlns:xlink="http://www.w3.org/1999/xlink" 
	 viewBox="0 0 512 512" xml:space="preserve">
<g>
	<g>
		<g>
			<path d="M256,0C114.618,0,0,114.618,0,256s114.618,256,256,256s256-114.618,256-256S397.382,0,256,0z M256,469.333
				c-117.818,0-213.333-95.515-213.333-213.333S138.182,42.667,256,42.667S469.333,138.182,469.333,256S373.818,469.333,256,469.333
				z"/>
			<path d="M392.203,300.307c-10.876-4.531-23.366,0.614-27.896,11.49c-25.456,61.112-93.807,81.792-164.104,52.51
				c-10.876-4.53-23.366,0.614-27.896,11.49c-4.531,10.876,0.614,23.366,11.49,27.896c90.538,37.714,184.595,9.256,219.896-75.49
				C408.224,317.327,403.079,304.837,392.203,300.307z"/>
			<path d="M214.208,197.152c8.213-7.189,14.315-16.619,16.917-27.243c1.899-7.787,1.024-12.117,1.024-12.117
				c-1.6-17.451-14.357-32.085-32.064-32.085c-13.163,0-24.469,7.915-29.419,19.243c-4.949-11.328-15.531-19.243-28.672-19.243
				c-17.728,0-30.485,14.635-32.085,32.085c0,0-0.875,4.331,1.045,12.117c2.581,10.624,8.683,20.053,16.917,27.243l42.795,37.525
				L214.208,197.152z"/>
			<path d="M298.539,197.152l42.795,37.525l43.541-37.525c8.213-7.189,14.315-16.619,16.917-27.243
				c1.899-7.787,1.024-12.117,1.024-12.117c-1.6-17.451-14.357-32.085-32.064-32.085c-13.163,0-24.469,7.915-29.419,19.243
				c-4.949-11.328-15.531-19.243-28.672-19.243c-17.728,0-30.485,14.635-32.085,32.085c0,0-0.875,4.331,1.045,12.117
				C284.203,180.533,290.304,189.963,298.539,197.152z"/>
		</g>
	</g>
</g>
</svg>